# xmcd
#
# Track frame offsets: 
#        150
#        18045
#        36000
#        52925
#        73022
#        93385
#        114922
#        128385
#        145180
#        164805
#        183927
#        199182
#        218962
#        239955
#
# Disc length: 3490 seconds
#
# Revision: 3
# Processed by: cddbd v1.5.2PL0 Copyright (c) Steve Scherf et al.
# Submitted via: ExactAudioCopy v1.0b4
#
DISCID=c30da00e
DTITLE=斉藤由貴 - CD-BOX1 DISC 4 「風夢」plus
DYEAR=2003
DGENRE=JPop
TTITLE0=ONE
TTITLE1=砂の城
TTITLE2=12月のカレンダー
TTITLE3=ひまわり
TTITLE4=Side Seat
TTITLE5=眠り姫
TTITLE6=親知らずが痛んだ日
TTITLE7=体育館は踊る
TTITLE8=街角のスナップ
TTITLE9=風・夢・天使
TTITLE10=家族の食卓
TTITLE11=追い風のポニーテール
TTITLE12=記憶
TTITLE13=MAY
EXTD=YEAR: 2003
EXTT0=
EXTT1=
EXTT2=
EXTT3=
EXTT4=
EXTT5=
EXTT6=
EXTT7=
EXTT8=
EXTT9=
EXTT10=
EXTT11=
EXTT12=
EXTT13=
PLAYORDER=
